<svg id="svg" version="1.1" xmlns="http://www.w3.org/2000/svg" xmlns:xlink="http://www.w3.org/1999/xlink" width="400" height="400" viewBox="0, 0, 400,400"><g id="svgg"><path id="path0" d="M189.139 21.579 C 187.016 21.758,185.113 22.007,184.910 22.132 C 184.707 22.257,182.934 22.553,180.971 22.790 C 177.226 23.240,172.639 24.133,169.600 25.003 C 168.610 25.287,166.630 25.826,165.200 26.202 C 159.002 27.829,150.830 31.020,143.000 34.869 C 138.656 37.005,138.409 37.140,135.306 39.087 C 134.155 39.809,133.134 40.400,133.038 40.400 C 132.671 40.400,125.982 45.084,121.099 48.760 C 105.640 60.399,89.338 81.537,82.201 99.200 C 81.623 100.630,80.912 102.340,80.622 103.000 C 79.457 105.644,77.416 111.863,75.830 117.600 C 70.623 136.441,70.123 158.407,74.457 178.000 C 74.920 180.090,75.546 182.571,75.849 183.514 C 76.152 184.457,76.400 185.494,76.400 185.819 C 76.400 186.145,76.566 186.723,76.769 187.105 C 76.972 187.487,77.544 189.150,78.039 190.800 C 78.988 193.958,81.740 201.523,82.370 202.705 C 82.574 203.087,83.983 205.920,85.501 209.000 C 88.288 214.651,88.742 215.442,92.737 221.600 C 99.723 232.368,109.467 242.730,121.800 252.505 C 123.308 253.701,128.429 257.394,129.500 258.059 C 131.372 259.220,131.233 260.528,128.856 264.088 C 127.787 265.690,126.224 268.080,125.382 269.400 C 124.540 270.720,120.942 276.210,117.387 281.600 C 113.832 286.990,110.055 292.750,108.994 294.400 C 107.933 296.050,105.205 300.228,102.932 303.685 C 97.784 311.514,97.787 311.484,102.413 310.187 C 103.616 309.849,105.590 309.323,106.800 309.017 C 112.405 307.598,113.950 307.202,116.000 306.658 C 117.210 306.337,120.720 305.412,123.800 304.602 C 126.880 303.792,130.750 302.769,132.400 302.329 C 138.401 300.727,139.840 300.348,142.000 299.800 C 143.210 299.493,145.190 298.979,146.400 298.658 C 147.610 298.337,151.120 297.412,154.200 296.602 C 157.280 295.792,161.150 294.769,162.800 294.329 C 169.007 292.672,170.257 292.344,172.400 291.808 C 173.610 291.506,176.040 290.869,177.800 290.393 C 182.785 289.046,185.217 288.404,187.600 287.808 C 188.810 287.506,191.240 286.869,193.000 286.393 C 198.849 284.812,200.581 284.363,202.837 283.842 C 204.067 283.558,205.270 283.204,205.510 283.056 C 205.750 282.907,206.724 282.628,207.673 282.435 C 208.623 282.241,210.840 281.693,212.600 281.216 C 214.360 280.738,218.860 279.567,222.600 278.613 C 226.340 277.658,230.750 276.486,232.400 276.008 C 234.050 275.529,236.030 274.959,236.800 274.740 C 240.918 273.570,247.469 271.198,251.096 269.564 C 252.028 269.144,252.891 268.800,253.012 268.800 C 254.140 268.800,267.799 261.275,273.553 257.483 C 281.299 252.379,293.218 241.740,298.800 234.947 C 300.010 233.475,301.186 232.074,301.414 231.835 C 308.689 224.190,320.316 203.291,323.799 191.600 C 324.094 190.610,324.717 188.540,325.185 187.000 C 327.232 180.254,328.473 174.435,329.664 166.000 C 330.398 160.800,330.396 139.506,329.661 134.600 C 327.948 123.166,325.332 112.384,322.951 106.940 C 322.648 106.246,322.400 105.504,322.400 105.290 C 322.400 105.077,322.028 104.024,321.574 102.951 C 321.120 101.878,320.597 100.640,320.413 100.200 C 317.662 93.634,310.421 80.640,306.682 75.561 C 305.757 74.304,304.730 72.877,304.400 72.389 C 304.070 71.901,303.619 71.299,303.397 71.051 C 303.176 70.803,302.477 69.970,301.844 69.200 C 295.030 60.907,285.891 52.176,278.400 46.802 C 277.190 45.934,276.020 45.081,275.800 44.905 C 275.417 44.600,273.585 43.399,268.800 40.315 C 263.308 36.775,256.053 33.185,248.000 30.021 C 246.790 29.546,245.440 29.000,245.000 28.807 C 241.494 27.274,229.183 24.028,223.000 23.007 C 221.240 22.716,218.720 22.276,217.400 22.028 C 214.385 21.464,194.303 21.145,189.139 21.579 M204.727 75.329 C 209.718 76.821,212.083 80.658,212.382 87.748 L 212.600 92.897 215.200 93.680 C 216.630 94.111,219.112 95.079,220.715 95.832 C 222.319 96.584,223.705 97.200,223.795 97.200 C 223.886 97.200,224.760 97.740,225.738 98.400 C 226.716 99.060,227.730 99.600,227.992 99.600 C 228.612 99.600,237.600 108.636,237.600 109.260 C 237.600 109.522,237.852 110.021,238.159 110.369 C 242.356 115.106,244.340 123.639,245.191 140.600 C 245.597 148.696,246.430 155.452,247.444 158.875 C 247.750 159.906,248.000 161.028,248.000 161.367 C 248.000 164.886,253.593 176.856,257.139 180.927 C 258.112 182.043,258.350 191.607,257.439 192.996 L 256.784 193.997 202.092 193.985 C 159.261 193.977,147.183 193.866,146.400 193.476 C 145.423 192.989,145.397 192.864,145.288 187.949 L 145.177 182.919 146.902 180.560 C 151.178 174.711,154.167 168.016,155.813 160.600 C 156.105 159.280,156.523 157.390,156.740 156.400 C 157.520 152.847,158.395 144.053,158.770 136.000 C 159.857 112.658,168.700 100.030,188.440 93.631 L 191.080 92.775 191.309 87.636 C 191.735 78.046,197.164 73.067,204.727 75.329 M214.349 201.973 C 216.662 203.211,216.099 209.638,213.305 213.894 C 206.361 224.471,189.854 221.228,187.608 208.844 C 186.865 204.746,187.489 202.329,189.400 201.911 C 191.186 201.520,213.607 201.576,214.349 201.973 " stroke="none" fill="#2583d2" fill-rule="evenodd"></path><path id="path1" d="M0.000 200.000 L 0.000 400.000 200.000 400.000 L 400.000 400.000 400.000 200.000 L 400.000 0.000 200.000 0.000 L 0.000 0.000 0.000 200.000 M216.000 20.936 C 221.380 21.536,222.746 21.776,229.200 23.249 C 234.895 24.550,242.388 26.730,242.980 27.260 C 243.189 27.447,243.729 27.606,244.180 27.614 C 244.631 27.621,245.720 27.975,246.600 28.400 C 247.480 28.825,248.410 29.179,248.668 29.186 C 248.925 29.194,249.645 29.448,250.268 29.751 C 250.890 30.054,252.030 30.567,252.800 30.890 C 256.154 32.298,265.219 36.930,267.600 38.453 C 273.266 42.076,279.045 45.992,279.883 46.775 C 280.369 47.229,280.883 47.600,281.026 47.600 C 281.570 47.600,287.780 53.096,292.552 57.800 C 301.990 67.104,307.947 74.754,313.833 85.132 C 317.571 91.724,317.731 92.030,320.166 97.309 C 320.955 99.019,321.600 100.611,321.600 100.847 C 321.600 101.083,321.874 101.754,322.209 102.338 C 324.161 105.743,327.221 116.275,329.201 126.400 C 329.438 127.610,329.939 130.130,330.316 132.000 C 330.888 134.843,331.000 137.826,331.000 150.200 C 331.000 165.365,330.918 166.442,329.134 174.800 C 328.923 175.790,328.573 177.581,328.357 178.780 C 328.141 179.979,327.691 181.869,327.358 182.980 C 327.024 184.091,326.466 185.990,326.116 187.200 C 325.065 190.834,323.999 194.151,323.610 195.000 C 323.408 195.440,322.862 196.790,322.396 198.000 C 321.930 199.210,321.291 200.710,320.975 201.332 C 320.659 201.955,320.400 202.643,320.400 202.861 C 320.400 203.306,316.654 210.825,315.051 213.600 C 314.478 214.590,313.889 215.670,313.740 216.000 C 313.234 217.123,307.366 226.173,306.700 226.858 C 306.409 227.156,305.103 228.750,303.796 230.400 C 296.424 239.706,287.297 248.806,279.800 254.325 C 278.260 255.459,276.820 256.527,276.600 256.700 C 276.380 256.872,275.120 257.706,273.800 258.552 C 272.480 259.397,270.912 260.429,270.316 260.845 C 269.720 261.260,269.104 261.600,268.948 261.600 C 268.791 261.600,268.379 261.852,268.031 262.160 C 267.447 262.678,266.334 263.302,259.800 266.773 C 251.642 271.107,238.069 276.005,227.600 278.393 C 225.510 278.870,222.924 279.516,221.854 279.830 C 220.784 280.143,219.620 280.400,219.267 280.400 C 218.915 280.400,217.901 280.652,217.013 280.960 C 216.126 281.268,214.320 281.801,213.000 282.145 C 205.567 284.083,201.192 285.258,197.900 286.202 C 196.745 286.534,195.080 286.973,194.200 287.178 C 191.587 287.788,189.127 288.410,187.000 289.000 C 185.900 289.304,183.830 289.854,182.400 290.221 C 180.970 290.588,178.645 291.228,177.233 291.644 C 175.821 292.060,174.405 292.400,174.086 292.400 C 173.768 292.400,172.673 292.657,171.654 292.970 C 168.600 293.910,165.499 294.782,163.800 295.178 C 161.187 295.788,158.727 296.410,156.600 297.000 C 155.500 297.304,153.430 297.854,152.000 298.221 C 150.570 298.588,148.245 299.228,146.833 299.644 C 145.421 300.060,144.005 300.400,143.686 300.400 C 143.368 300.400,142.273 300.657,141.254 300.970 C 137.732 302.054,133.160 303.269,129.134 304.192 C 127.888 304.477,126.685 304.824,126.461 304.962 C 126.237 305.101,125.276 305.373,124.327 305.567 C 123.377 305.761,121.160 306.320,119.400 306.809 C 117.640 307.298,115.210 307.944,114.000 308.244 C 108.150 309.694,106.786 310.046,104.000 310.831 C 97.703 312.604,97.986 312.557,97.350 311.921 C 96.828 311.399,97.008 310.953,98.879 308.126 C 100.046 306.364,101.180 304.634,101.400 304.282 C 101.620 303.930,102.274 302.957,102.852 302.121 C 103.431 301.284,104.767 299.250,105.820 297.600 C 107.635 294.757,112.062 287.972,119.391 276.800 C 129.799 260.936,130.035 260.552,129.781 259.917 C 129.666 259.633,128.904 258.916,128.086 258.324 C 117.898 250.946,112.395 246.359,107.200 240.916 C 102.650 236.148,102.051 235.470,98.981 231.602 C 97.671 229.953,96.264 228.243,95.854 227.802 C 93.313 225.070,87.227 214.930,83.610 207.400 C 80.286 200.480,80.666 201.393,78.031 194.000 C 77.757 193.230,77.278 191.745,76.966 190.700 C 76.655 189.655,76.138 187.945,75.817 186.900 C 75.496 185.855,75.031 184.190,74.782 183.200 C 74.534 182.210,74.135 180.770,73.897 180.000 C 73.284 178.024,72.477 173.372,71.815 168.000 C 71.503 165.470,71.036 161.690,70.777 159.600 C 70.252 155.348,70.489 141.986,71.172 137.400 C 71.401 135.860,71.771 133.250,71.995 131.600 C 72.481 128.008,73.373 123.277,74.030 120.800 C 74.914 117.471,76.057 113.408,76.393 112.400 C 76.576 111.850,77.208 109.826,77.798 107.902 C 78.387 105.978,79.034 104.302,79.235 104.178 C 79.436 104.054,79.600 103.676,79.600 103.337 C 79.600 102.998,79.859 102.154,80.175 101.460 C 80.491 100.767,81.195 99.120,81.739 97.800 C 82.668 95.544,84.807 91.304,87.794 85.800 C 88.975 83.625,91.479 79.606,92.281 78.600 C 92.457 78.380,93.140 77.390,93.800 76.400 C 94.964 74.654,95.362 74.105,96.200 73.086 C 96.420 72.819,97.136 71.880,97.792 71.000 C 98.447 70.120,99.368 68.950,99.837 68.400 C 108.497 58.256,115.060 51.885,122.188 46.701 C 125.484 44.304,132.386 39.600,132.607 39.600 C 132.675 39.600,133.691 38.964,134.865 38.186 C 136.731 36.950,145.587 32.458,149.000 31.015 C 149.660 30.736,150.830 30.230,151.600 29.891 C 152.370 29.552,154.080 28.871,155.400 28.378 C 156.720 27.884,158.367 27.237,159.060 26.940 C 159.754 26.643,160.540 26.400,160.807 26.400 C 161.074 26.400,162.127 26.132,163.146 25.804 C 170.428 23.462,179.785 21.611,188.589 20.773 C 191.004 20.543,193.074 20.258,193.189 20.141 C 193.585 19.740,210.587 20.333,216.000 20.936 M199.000 76.263 C 194.646 77.446,192.415 81.305,192.224 87.983 C 192.068 93.426,191.769 94.095,189.249 94.635 C 185.154 95.512,178.199 98.947,174.400 101.969 C 170.972 104.695,165.600 110.683,165.600 111.778 C 165.600 111.881,165.092 112.828,164.471 113.882 C 163.399 115.702,162.389 118.386,160.998 123.111 C 160.396 125.154,160.049 129.099,159.210 143.400 C 158.819 150.081,158.033 155.846,156.976 159.800 C 154.251 169.988,152.791 173.529,148.909 179.356 C 146.116 183.550,144.818 190.258,146.480 191.920 C 146.849 192.289,159.696 192.400,201.872 192.400 L 256.785 192.400 257.031 191.421 C 257.166 190.882,257.211 188.677,257.130 186.521 L 256.984 182.600 254.656 179.231 C 247.861 169.400,244.987 157.824,243.974 136.200 C 242.927 113.867,234.289 100.898,216.800 95.400 C 215.590 95.019,213.970 94.414,213.200 94.054 L 211.800 93.400 211.557 88.400 C 211.225 81.564,210.398 79.706,206.614 77.293 C 205.021 76.277,200.967 75.729,199.000 76.263 M188.365 204.292 C 186.625 208.868,191.630 216.769,197.362 218.496 C 206.512 221.252,216.512 213.104,214.609 204.442 L 214.336 203.200 201.558 203.200 L 188.780 203.200 188.365 204.292 M149.209 318.800 C 149.417 319.130,149.591 322.325,149.594 325.900 C 149.597 329.475,149.656 332.400,149.725 332.400 C 149.794 332.400,150.807 331.939,151.976 331.375 C 159.107 327.934,170.071 332.754,173.418 340.800 C 173.556 341.130,173.968 342.115,174.334 342.988 C 175.314 345.325,175.267 352.814,174.259 355.000 C 173.853 355.880,173.171 357.348,172.743 358.262 C 171.563 360.783,168.519 363.773,165.400 365.473 L 162.600 367.000 157.400 366.990 C 151.965 366.979,151.834 366.947,147.636 364.601 C 146.070 363.726,142.675 359.844,141.641 357.746 C 141.113 356.676,140.483 355.440,140.241 355.000 C 139.381 353.439,139.421 319.122,140.284 318.479 C 141.326 317.702,148.683 317.966,149.209 318.800 M296.881 318.719 C 297.251 319.089,297.436 321.062,297.527 325.603 L 297.655 331.969 298.927 331.728 C 299.627 331.596,300.503 331.333,300.874 331.144 C 303.621 329.742,310.356 331.939,313.844 335.375 C 318.287 339.752,318.771 341.676,318.787 355.020 C 318.802 367.790,319.227 366.800,313.734 366.800 C 308.452 366.800,308.800 367.621,308.800 355.167 L 308.800 345.082 307.412 343.388 C 305.140 340.616,301.082 340.570,298.754 343.290 L 297.633 344.600 297.616 354.811 C 297.596 367.513,297.903 366.800,292.457 366.800 C 289.959 366.800,288.388 366.628,288.080 366.320 C 287.196 365.436,287.409 318.956,288.300 318.412 C 289.287 317.809,296.218 318.057,296.881 318.719 M127.886 331.045 C 134.840 334.006,139.088 338.994,135.747 340.276 C 135.446 340.391,135.198 340.691,135.197 340.943 C 135.195 341.194,134.605 342.030,133.887 342.800 C 133.168 343.570,131.865 345.100,130.990 346.200 C 130.116 347.300,129.211 348.380,128.980 348.600 C 128.748 348.820,127.855 349.900,126.993 351.000 C 125.484 352.928,124.140 354.511,122.731 356.021 C 121.917 356.893,122.482 357.224,124.225 356.897 C 125.786 356.604,127.135 355.740,128.634 354.075 C 130.220 352.312,130.887 352.513,133.896 355.662 C 137.302 359.225,137.346 359.989,134.307 362.795 C 130.775 366.056,128.091 367.002,122.400 366.989 C 117.200 366.977,116.977 366.922,112.869 364.617 C 107.117 361.391,103.108 350.692,105.135 343.979 C 106.309 340.091,107.276 338.332,109.812 335.473 C 111.071 334.054,114.766 331.600,115.645 331.600 C 116.010 331.600,116.824 331.331,117.454 331.002 C 119.083 330.153,125.858 330.181,127.886 331.045 M201.346 331.002 C 201.976 331.331,202.790 331.600,203.155 331.600 C 205.380 331.600,212.400 338.370,212.400 340.516 C 212.400 340.804,212.615 341.255,212.877 341.517 C 214.310 342.950,214.318 355.042,212.887 356.473 C 212.619 356.741,212.400 357.201,212.400 357.496 C 212.400 358.637,208.151 363.727,206.600 364.444 C 206.160 364.647,204.990 365.284,204.000 365.859 C 201.153 367.513,194.252 367.721,191.137 366.247 C 189.919 365.671,188.805 365.200,188.661 365.200 C 188.518 365.200,188.400 368.238,188.400 371.951 C 188.400 377.396,188.286 378.796,187.813 379.189 C 186.925 379.926,179.294 379.597,178.791 378.800 C 178.065 377.650,178.293 332.964,179.029 332.229 C 180.076 331.181,181.333 331.492,182.951 333.200 C 184.692 335.037,184.764 335.057,186.046 334.053 C 190.093 330.882,198.067 329.293,201.346 331.002 M66.800 331.991 C 67.305 332.310,67.420 334.135,67.529 343.461 C 67.671 355.700,67.820 356.521,69.984 356.996 C 74.047 357.889,74.371 356.928,74.387 343.929 C 74.403 330.647,74.004 331.600,79.549 331.600 C 84.796 331.600,84.400 330.619,84.400 343.618 C 84.400 354.592,84.407 354.684,85.324 355.751 C 86.716 357.371,88.719 357.553,90.322 356.204 L 91.600 355.129 91.600 344.138 C 91.600 330.655,91.226 331.600,96.565 331.600 C 102.080 331.600,101.646 330.435,101.499 344.855 C 101.366 357.881,101.352 357.978,99.122 361.441 C 95.307 367.363,85.656 369.134,80.348 364.885 C 79.795 364.443,79.372 364.562,77.548 365.676 C 71.376 369.448,61.690 366.231,58.654 359.400 C 57.035 355.758,56.365 333.692,57.829 332.229 C 58.549 331.508,65.735 331.318,66.800 331.991 M226.786 332.374 C 227.039 332.847,227.200 336.960,227.200 342.957 C 227.200 353.638,227.363 354.539,229.597 356.238 C 231.088 357.371,234.699 357.298,235.976 356.108 C 238.398 353.852,238.395 353.872,238.397 342.929 C 238.400 334.308,238.491 332.767,239.029 332.229 C 239.673 331.584,246.328 331.291,247.767 331.843 C 248.415 332.091,248.784 364.535,248.157 366.167 C 247.549 367.752,244.260 366.160,243.503 363.915 C 243.319 363.369,243.139 363.444,238.400 366.032 C 232.734 369.126,221.525 365.618,219.762 360.200 C 219.619 359.760,219.313 359.164,219.081 358.875 C 217.308 356.663,216.105 333.655,217.680 332.080 C 218.568 331.192,226.287 331.441,226.786 332.374 M281.610 332.626 C 281.824 333.190,282.000 334.979,282.000 336.600 C 282.000 338.221,281.824 340.010,281.610 340.574 L 281.220 341.600 272.638 341.600 C 265.371 341.600,263.961 341.696,263.429 342.229 C 261.825 343.832,263.064 344.400,268.180 344.403 C 273.275 344.407,277.509 344.994,278.427 345.824 C 278.777 346.141,279.224 346.400,279.421 346.400 C 280.911 346.400,284.400 352.525,284.400 355.139 C 284.400 359.060,280.329 365.113,277.234 365.792 C 276.560 365.940,275.906 366.228,275.781 366.431 C 275.265 367.266,253.670 366.879,253.214 366.026 C 252.626 364.927,252.679 357.881,253.280 357.280 C 253.626 356.934,256.368 356.800,263.094 356.800 C 270.999 356.800,272.579 356.701,273.411 356.156 C 275.094 355.053,274.138 354.800,268.290 354.800 C 262.571 354.800,260.013 354.318,258.369 352.932 C 258.021 352.639,257.608 352.400,257.449 352.400 C 257.291 352.400,256.698 351.905,256.131 351.300 C 250.464 345.251,252.076 335.992,259.393 332.567 C 261.327 331.662,261.762 331.627,271.310 331.614 L 281.220 331.600 281.610 332.626 M327.546 333.000 C 328.859 334.494,329.745 334.718,331.011 333.874 C 333.477 332.228,336.416 331.600,341.645 331.600 L 346.820 331.600 347.210 332.626 C 347.424 333.190,347.600 334.979,347.600 336.600 C 347.600 341.502,347.511 341.600,343.060 341.600 C 338.090 341.600,337.069 341.846,335.294 343.470 L 333.800 344.838 333.600 355.319 C 333.490 361.084,333.254 366.025,333.076 366.300 C 332.637 366.980,324.757 366.997,324.080 366.320 C 323.390 365.630,323.390 332.770,324.080 332.080 C 324.951 331.209,326.285 331.563,327.546 333.000 M119.067 341.301 C 116.078 342.854,114.245 346.961,115.001 350.407 L 115.274 351.646 116.805 349.523 C 117.647 348.355,118.620 347.085,118.968 346.700 C 119.316 346.315,119.600 345.829,119.600 345.620 C 119.600 345.411,119.829 345.096,120.110 344.920 C 120.622 344.598,121.771 342.973,122.669 341.300 C 123.309 340.108,121.362 340.109,119.067 341.301 M154.585 341.127 C 148.521 344.527,147.832 352.090,153.249 355.799 C 155.346 357.235,159.375 357.490,160.722 356.271 C 161.129 355.902,161.584 355.600,161.731 355.600 C 163.139 355.600,164.800 351.918,164.800 348.800 C 164.800 342.806,159.155 338.565,154.585 341.127 M193.279 341.236 C 188.316 343.562,187.057 349.940,190.658 354.511 C 191.129 355.110,191.655 355.600,191.826 355.600 C 191.997 355.600,192.476 355.907,192.891 356.282 C 194.510 357.748,202.000 356.558,202.000 354.836 C 202.000 354.679,202.405 354.116,202.900 353.585 C 204.516 351.849,204.224 345.465,202.439 343.503 C 199.688 340.479,196.550 339.703,193.279 341.236 " stroke="none" fill="#ffffff" fill-rule="evenodd"></path><path id="path2" d="M141.289 319.823 L 140.400 320.445 140.400 334.997 C 140.400 350.136,140.726 353.592,142.458 356.806 C 153.080 376.514,181.697 361.202,172.142 340.923 C 168.565 333.331,156.892 329.055,151.210 333.256 C 148.728 335.091,148.402 334.375,148.387 327.073 C 148.378 322.325,148.233 320.413,147.843 319.900 C 147.133 318.964,142.592 318.910,141.289 319.823 M289.236 319.900 L 288.384 320.600 288.492 342.800 L 288.600 365.000 292.200 365.000 L 295.800 365.000 296.000 355.200 C 296.258 342.534,297.425 339.938,302.895 339.859 C 308.735 339.775,309.637 341.733,309.728 354.692 L 309.800 365.000 313.600 365.000 L 317.400 365.000 317.382 354.000 L 317.365 343.000 316.293 340.800 C 312.962 333.963,304.831 330.475,298.559 333.193 C 296.131 334.245,296.000 333.928,296.000 326.986 C 296.000 323.451,295.821 320.412,295.586 319.974 C 295.014 318.905,290.512 318.853,289.236 319.900 M119.564 332.015 C 106.535 333.532,101.103 351.541,110.762 361.200 C 117.213 367.651,129.162 367.404,134.530 360.708 L 135.727 359.217 133.273 356.808 C 130.371 353.959,130.700 354.024,128.645 355.907 C 124.312 359.875,118.503 359.250,121.935 355.184 C 122.577 354.423,124.584 352.000,126.395 349.800 C 128.205 347.600,130.073 345.350,130.546 344.800 C 131.018 344.250,132.123 342.900,133.002 341.801 C 133.881 340.701,134.825 339.563,135.100 339.272 C 136.697 337.582,130.849 332.763,126.532 332.212 C 122.744 331.728,122.168 331.711,119.564 332.015 M192.200 332.330 C 190.579 332.933,188.953 333.814,187.104 335.091 C 184.691 336.757,184.660 336.754,182.496 334.558 C 179.914 331.939,179.981 331.337,180.097 356.071 L 180.200 378.200 183.255 378.316 C 187.670 378.484,187.600 378.608,187.600 370.614 C 187.600 363.469,187.815 362.862,189.867 364.207 C 196.047 368.257,206.243 365.475,210.446 358.592 C 215.854 349.738,212.659 337.888,203.600 333.203 C 201.712 332.227,194.053 331.640,192.200 332.330 M58.985 333.719 C 58.310 336.407,58.996 357.793,59.800 359.142 C 63.800 365.851,71.182 367.863,77.686 364.016 C 79.212 363.114,80.362 363.165,81.600 364.192 C 84.646 366.717,91.396 366.433,95.321 363.614 C 99.665 360.494,100.393 357.665,100.397 343.874 C 100.401 332.457,100.511 332.800,96.848 332.800 C 92.654 332.800,92.804 332.377,92.777 344.231 C 92.751 356.004,92.635 356.561,89.900 358.000 L 88.000 359.000 86.533 358.200 C 83.518 356.557,83.531 356.616,83.579 344.692 C 83.630 332.226,83.844 332.800,79.154 332.800 C 75.778 332.800,76.003 332.008,75.984 343.933 C 75.965 355.292,75.659 356.610,72.695 358.118 C 70.813 359.076,69.703 358.822,67.836 357.008 L 66.400 355.614 66.400 344.621 C 66.400 331.898,66.733 332.800,62.034 332.800 C 59.427 332.800,59.198 332.869,58.985 333.719 M218.814 333.574 C 217.678 335.696,218.550 355.439,219.894 358.021 C 224.026 365.962,235.936 368.745,241.000 362.953 C 242.095 361.701,243.514 361.952,244.673 363.601 C 247.309 367.352,247.387 366.958,247.505 349.292 L 247.609 333.584 246.579 333.192 C 244.837 332.530,240.526 332.694,240.243 333.433 C 240.109 333.781,240.000 337.960,240.000 342.719 C 240.000 352.295,239.706 353.889,237.500 356.255 C 234.402 359.579,229.984 359.309,227.400 355.637 L 226.200 353.933 226.074 343.866 C 225.929 332.209,226.150 332.800,221.938 332.800 C 219.668 332.800,219.161 332.926,218.814 333.574 M262.038 333.252 C 254.929 334.432,251.242 343.645,255.715 349.052 C 258.577 352.512,260.600 353.200,267.912 353.200 C 274.310 353.200,275.200 353.475,275.200 355.455 C 275.200 357.726,274.908 357.790,264.036 357.920 C 252.489 358.057,253.455 357.638,253.679 362.412 L 253.800 365.000 265.200 365.000 L 276.600 365.000 278.000 364.013 C 281.729 361.384,282.575 359.793,282.575 355.400 C 282.575 348.250,279.492 346.059,268.842 345.641 C 262.098 345.377,260.824 344.839,261.447 342.519 C 261.998 340.464,263.125 340.210,272.300 340.072 L 280.800 339.943 280.800 336.618 C 280.800 333.508,280.742 333.278,279.900 333.052 C 278.535 332.686,264.500 332.844,262.038 333.252 M336.400 333.357 C 333.825 333.833,331.549 334.794,330.491 335.852 C 329.546 336.797,328.548 336.457,327.400 334.800 C 326.790 333.920,326.068 333.200,325.795 333.200 C 324.468 333.200,324.390 334.189,324.495 349.647 L 324.600 365.000 328.330 365.000 L 332.060 365.000 332.019 356.400 C 331.951 342.189,333.542 340.000,343.933 340.000 L 346.400 340.000 346.400 336.814 C 346.400 332.566,344.407 331.878,336.400 333.357 M123.767 339.443 C 125.107 339.957,124.336 341.588,120.173 347.052 C 114.890 353.986,115.306 353.599,114.372 352.456 C 110.476 347.688,118.021 337.238,123.767 339.443 M159.525 339.621 C 162.218 340.199,164.940 342.800,165.716 345.537 C 167.905 353.262,161.561 360.528,154.825 358.010 C 143.833 353.899,148.109 337.173,159.525 339.621 M198.910 339.570 C 207.530 341.571,207.601 355.011,199.008 358.031 C 191.170 360.786,184.235 350.704,188.905 343.343 C 191.028 339.996,194.731 338.599,198.910 339.570 " stroke="none" fill="#080808" fill-rule="evenodd"></path><path id="path3" d="M193.189 20.141 C 193.074 20.258,191.004 20.543,188.589 20.773 C 179.785 21.611,170.428 23.462,163.146 25.804 C 162.127 26.132,161.074 26.400,160.807 26.400 C 160.540 26.400,159.754 26.643,159.060 26.940 C 158.367 27.237,156.720 27.884,155.400 28.378 C 154.080 28.871,152.370 29.552,151.600 29.891 C 150.830 30.230,149.660 30.736,149.000 31.015 C 145.587 32.458,136.731 36.950,134.865 38.186 C 133.691 38.964,132.675 39.600,132.607 39.600 C 132.386 39.600,125.484 44.304,122.188 46.701 C 115.060 51.885,108.497 58.256,99.837 68.400 C 99.368 68.950,98.447 70.120,97.792 71.000 C 97.136 71.880,96.420 72.819,96.200 73.086 C 95.362 74.105,94.964 74.654,93.800 76.400 C 93.140 77.390,92.457 78.380,92.281 78.600 C 91.479 79.606,88.975 83.625,87.794 85.800 C 84.807 91.304,82.668 95.544,81.739 97.800 C 81.195 99.120,80.491 100.767,80.175 101.460 C 79.859 102.154,79.600 102.998,79.600 103.337 C 79.600 103.676,79.436 104.054,79.235 104.178 C 79.034 104.302,78.387 105.978,77.798 107.902 C 77.208 109.826,76.576 111.850,76.393 112.400 C 76.057 113.408,74.914 117.471,74.030 120.800 C 73.373 123.277,72.481 128.008,71.995 131.600 C 71.771 133.250,71.401 135.860,71.172 137.400 C 70.489 141.986,70.252 155.348,70.777 159.600 C 71.036 161.690,71.503 165.470,71.815 168.000 C 72.477 173.372,73.284 178.024,73.897 180.000 C 74.135 180.770,74.534 182.210,74.782 183.200 C 75.031 184.190,75.496 185.855,75.817 186.900 C 76.138 187.945,76.655 189.655,76.966 190.700 C 77.278 191.745,77.757 193.230,78.031 194.000 C 80.666 201.393,80.286 200.480,83.610 207.400 C 87.227 214.930,93.313 225.070,95.854 227.802 C 96.264 228.243,97.671 229.953,98.981 231.602 C 102.051 235.470,102.650 236.148,107.200 240.916 C 112.395 246.359,117.898 250.946,128.086 258.324 C 128.904 258.916,129.666 259.633,129.781 259.917 C 130.035 260.552,129.799 260.936,119.391 276.800 C 112.062 287.972,107.635 294.757,105.820 297.600 C 104.767 299.250,103.431 301.284,102.852 302.121 C 102.274 302.957,101.620 303.930,101.400 304.282 C 101.180 304.634,100.046 306.364,98.879 308.126 C 97.008 310.953,96.828 311.399,97.350 311.921 C 97.986 312.557,97.703 312.604,104.000 310.831 C 106.786 310.046,108.150 309.694,114.000 308.244 C 115.210 307.944,117.640 307.298,119.400 306.809 C 121.160 306.320,123.377 305.761,124.327 305.567 C 125.276 305.373,126.237 305.101,126.461 304.962 C 126.685 304.824,127.888 304.477,129.134 304.192 C 133.160 303.269,137.732 302.054,141.254 300.970 C 142.273 300.657,143.368 300.400,143.686 300.400 C 144.005 300.400,145.421 300.060,146.833 299.644 C 148.245 299.228,150.570 298.588,152.000 298.221 C 153.430 297.854,155.500 297.304,156.600 297.000 C 158.727 296.410,161.187 295.788,163.800 295.178 C 165.499 294.782,168.600 293.910,171.654 292.970 C 172.673 292.657,173.768 292.400,174.086 292.400 C 174.405 292.400,175.821 292.060,177.233 291.644 C 178.645 291.228,180.970 290.588,182.400 290.221 C 183.830 289.854,185.900 289.304,187.000 289.000 C 189.127 288.410,191.587 287.788,194.200 287.178 C 195.080 286.973,196.745 286.534,197.900 286.202 C 201.192 285.258,205.567 284.083,213.000 282.145 C 214.320 281.801,216.126 281.268,217.013 280.960 C 217.901 280.652,218.915 280.400,219.267 280.400 C 219.620 280.400,220.784 280.143,221.854 279.830 C 222.924 279.516,225.510 278.870,227.600 278.393 C 238.069 276.005,251.642 271.107,259.800 266.773 C 266.334 263.302,267.447 262.678,268.031 262.160 C 268.379 261.852,268.791 261.600,268.948 261.600 C 269.104 261.600,269.720 261.260,270.316 260.845 C 270.912 260.429,272.480 259.397,273.800 258.552 C 275.120 257.706,276.380 256.872,276.600 256.700 C 276.820 256.527,278.260 255.459,279.800 254.325 C 287.297 248.806,296.424 239.706,303.796 230.400 C 305.103 228.750,306.409 227.156,306.700 226.858 C 307.366 226.173,313.234 217.123,313.740 216.000 C 313.889 215.670,314.478 214.590,315.051 213.600 C 316.654 210.825,320.400 203.306,320.400 202.861 C 320.400 202.643,320.659 201.955,320.975 201.332 C 321.291 200.710,321.930 199.210,322.396 198.000 C 322.862 196.790,323.408 195.440,323.610 195.000 C 323.999 194.151,325.065 190.834,326.116 187.200 C 326.466 185.990,327.024 184.091,327.358 182.980 C 327.691 181.869,328.141 179.979,328.357 178.780 C 328.573 177.581,328.923 175.790,329.134 174.800 C 330.918 166.442,331.000 165.365,331.000 150.200 C 331.000 137.826,330.888 134.843,330.316 132.000 C 329.939 130.130,329.438 127.610,329.201 126.400 C 327.221 116.275,324.161 105.743,322.209 102.338 C 321.874 101.754,321.600 101.083,321.600 100.847 C 321.600 100.611,320.955 99.019,320.166 97.309 C 317.731 92.030,317.571 91.724,313.833 85.132 C 307.947 74.754,301.990 67.104,292.552 57.800 C 287.780 53.096,281.570 47.600,281.026 47.600 C 280.883 47.600,280.369 47.229,279.883 46.775 C 279.045 45.992,273.266 42.076,267.600 38.453 C 265.219 36.930,256.154 32.298,252.800 30.890 C 252.030 30.567,250.890 30.054,250.268 29.751 C 249.645 29.448,248.925 29.194,248.668 29.186 C 248.410 29.179,247.480 28.825,246.600 28.400 C 245.720 27.975,244.631 27.621,244.180 27.614 C 243.729 27.606,243.189 27.447,242.980 27.260 C 242.388 26.730,234.895 24.550,229.200 23.249 C 222.746 21.776,221.380 21.536,216.000 20.936 C 210.587 20.333,193.585 19.740,193.189 20.141 M217.400 22.028 C 218.720 22.276,221.240 22.716,223.000 23.007 C 229.183 24.028,241.494 27.274,245.000 28.807 C 245.440 29.000,246.790 29.546,248.000 30.021 C 256.053 33.185,263.308 36.775,268.800 40.315 C 273.585 43.399,275.417 44.600,275.800 44.905 C 276.020 45.081,277.190 45.934,278.400 46.802 C 285.891 52.176,295.030 60.907,301.844 69.200 C 302.477 69.970,303.176 70.803,303.397 71.051 C 303.619 71.299,304.070 71.901,304.400 72.389 C 304.730 72.877,305.757 74.304,306.682 75.561 C 310.421 80.640,317.662 93.634,320.413 100.200 C 320.597 100.640,321.120 101.878,321.574 102.951 C 322.028 104.024,322.400 105.077,322.400 105.290 C 322.400 105.504,322.648 106.246,322.951 106.940 C 325.332 112.384,327.948 123.166,329.661 134.600 C 330.396 139.506,330.398 160.800,329.664 166.000 C 328.473 174.435,327.232 180.254,325.185 187.000 C 324.717 188.540,324.094 190.610,323.799 191.600 C 320.316 203.291,308.689 224.190,301.414 231.835 C 301.186 232.074,300.010 233.475,298.800 234.947 C 293.218 241.740,281.299 252.379,273.553 257.483 C 267.799 261.275,254.140 268.800,253.012 268.800 C 252.891 268.800,252.028 269.144,251.096 269.564 C 247.469 271.198,240.918 273.570,236.800 274.740 C 236.030 274.959,234.050 275.529,232.400 276.008 C 230.750 276.486,226.340 277.658,222.600 278.613 C 218.860 279.567,214.360 280.738,212.600 281.216 C 210.840 281.693,208.623 282.241,207.673 282.435 C 206.724 282.628,205.750 282.907,205.510 283.056 C 205.270 283.204,204.067 283.558,202.837 283.842 C 200.581 284.363,198.849 284.812,193.000 286.393 C 191.240 286.869,188.810 287.506,187.600 287.808 C 185.217 288.404,182.785 289.046,177.800 290.393 C 176.040 290.869,173.610 291.506,172.400 291.808 C 170.257 292.344,169.007 292.672,162.800 294.329 C 161.150 294.769,157.280 295.792,154.200 296.602 C 151.120 297.412,147.610 298.337,146.400 298.658 C 145.190 298.979,143.210 299.493,142.000 299.800 C 139.840 300.348,138.401 300.727,132.400 302.329 C 130.750 302.769,126.880 303.792,123.800 304.602 C 120.720 305.412,117.210 306.337,116.000 306.658 C 113.950 307.202,112.405 307.598,106.800 309.017 C 105.590 309.323,103.616 309.849,102.413 310.187 C 97.787 311.484,97.784 311.514,102.932 303.685 C 105.205 300.228,107.933 296.050,108.994 294.400 C 110.055 292.750,113.832 286.990,117.387 281.600 C 120.942 276.210,124.540 270.720,125.382 269.400 C 126.224 268.080,127.787 265.690,128.856 264.088 C 131.233 260.528,131.372 259.220,129.500 258.059 C 128.429 257.394,123.308 253.701,121.800 252.505 C 109.467 242.730,99.723 232.368,92.737 221.600 C 88.742 215.442,88.288 214.651,85.501 209.000 C 83.983 205.920,82.574 203.087,82.370 202.705 C 81.740 201.523,78.988 193.958,78.039 190.800 C 77.544 189.150,76.972 187.487,76.769 187.105 C 76.566 186.723,76.400 186.145,76.400 185.819 C 76.400 185.494,76.152 184.457,75.849 183.514 C 75.546 182.571,74.920 180.090,74.457 178.000 C 70.536 160.272,70.528 141.242,74.434 123.400 C 75.917 116.625,78.786 107.168,80.622 103.000 C 80.912 102.340,81.623 100.630,82.201 99.200 C 89.338 81.537,105.640 60.399,121.099 48.760 C 125.982 45.084,132.671 40.400,133.038 40.400 C 133.134 40.400,134.155 39.809,135.306 39.087 C 138.409 37.140,138.656 37.005,143.000 34.869 C 150.830 31.020,159.002 27.829,165.200 26.202 C 166.630 25.826,168.610 25.287,169.600 25.003 C 172.639 24.133,177.226 23.240,180.971 22.790 C 182.934 22.553,184.707 22.257,184.910 22.132 C 186.410 21.205,212.557 21.122,217.400 22.028 M198.763 75.342 C 193.729 76.946,191.630 80.407,191.309 87.636 L 191.080 92.775 188.440 93.631 C 168.700 100.030,159.857 112.658,158.770 136.000 C 158.395 144.053,157.520 152.847,156.740 156.400 C 156.523 157.390,156.105 159.280,155.813 160.600 C 154.167 168.016,151.178 174.711,146.902 180.560 L 145.177 182.919 145.288 187.949 C 145.397 192.864,145.423 192.989,146.400 193.476 C 147.183 193.866,159.261 193.977,202.092 193.985 L 256.784 193.997 257.439 192.996 C 258.350 191.607,258.112 182.043,257.139 180.927 C 253.593 176.856,248.000 164.886,248.000 161.367 C 248.000 161.028,247.750 159.906,247.444 158.875 C 246.430 155.452,245.597 148.696,245.191 140.600 C 244.340 123.639,242.356 115.106,238.159 110.369 C 237.852 110.021,237.600 109.522,237.600 109.260 C 237.600 108.636,228.612 99.600,227.992 99.600 C 227.730 99.600,226.716 99.060,225.738 98.400 C 224.760 97.740,223.886 97.200,223.795 97.200 C 223.705 97.200,222.319 96.584,220.715 95.832 C 219.112 95.079,216.630 94.111,215.200 93.680 L 212.600 92.897 212.382 87.748 C 211.980 78.228,206.207 72.969,198.763 75.342 M206.614 77.293 C 210.398 79.706,211.225 81.564,211.557 88.400 L 211.800 93.400 213.200 94.054 C 213.970 94.414,215.590 95.019,216.800 95.400 C 234.289 100.898,242.927 113.867,243.974 136.200 C 244.987 157.824,247.861 169.400,254.656 179.231 L 256.984 182.600 257.130 186.521 C 257.211 188.677,257.166 190.882,257.031 191.421 L 256.785 192.400 201.872 192.400 C 159.696 192.400,146.849 192.289,146.480 191.920 C 144.818 190.258,146.116 183.550,148.909 179.356 C 152.791 173.529,154.251 169.988,156.976 159.800 C 158.033 155.846,158.819 150.081,159.210 143.400 C 160.049 129.099,160.396 125.154,160.998 123.111 C 162.389 118.386,163.399 115.702,164.471 113.882 C 165.092 112.828,165.600 111.881,165.600 111.778 C 165.600 110.683,170.972 104.695,174.400 101.969 C 178.199 98.947,185.154 95.512,189.249 94.635 C 191.769 94.095,192.068 93.426,192.224 87.983 C 192.397 81.907,192.994 80.379,196.105 78.049 C 199.345 75.623,203.523 75.322,206.614 77.293 M189.400 201.911 C 187.489 202.329,186.865 204.746,187.608 208.844 C 189.854 221.228,206.361 224.471,213.305 213.894 C 216.099 209.638,216.662 203.211,214.349 201.973 C 213.607 201.576,191.186 201.520,189.400 201.911 M214.609 204.442 C 216.512 213.104,206.512 221.252,197.362 218.496 C 191.630 216.769,186.625 208.868,188.365 204.292 L 188.780 203.200 201.558 203.200 L 214.336 203.200 214.609 204.442 M140.284 318.479 C 139.421 319.122,139.381 353.439,140.241 355.000 C 140.483 355.440,141.113 356.676,141.641 357.746 C 142.675 359.844,146.070 363.726,147.636 364.601 C 151.834 366.947,151.965 366.979,157.400 366.990 L 162.600 367.000 165.400 365.473 C 168.519 363.773,171.563 360.783,172.743 358.262 C 173.171 357.348,173.853 355.880,174.259 355.000 C 175.267 352.814,175.314 345.325,174.334 342.988 C 173.968 342.115,173.556 341.130,173.418 340.800 C 170.071 332.754,159.107 327.934,151.976 331.375 C 150.807 331.939,149.794 332.400,149.725 332.400 C 149.656 332.400,149.597 329.475,149.594 325.900 C 149.591 322.325,149.417 319.130,149.209 318.800 C 148.683 317.966,141.326 317.702,140.284 318.479 M288.300 318.412 C 287.409 318.956,287.196 365.436,288.080 366.320 C 288.388 366.628,289.959 366.800,292.457 366.800 C 297.903 366.800,297.596 367.513,297.616 354.811 L 297.633 344.600 298.754 343.290 C 301.082 340.570,305.140 340.616,307.412 343.388 L 308.800 345.082 308.800 355.167 C 308.800 367.621,308.452 366.800,313.734 366.800 C 319.227 366.800,318.802 367.790,318.787 355.020 C 318.771 341.676,318.287 339.752,313.844 335.375 C 310.356 331.939,303.621 329.742,300.874 331.144 C 300.503 331.333,299.627 331.596,298.927 331.728 L 297.655 331.969 297.527 325.603 C 297.436 321.062,297.251 319.089,296.881 318.719 C 296.218 318.057,289.287 317.809,288.300 318.412 M148.311 319.023 C 149.168 319.623,149.200 319.880,149.200 326.199 C 149.200 332.938,149.410 333.833,150.725 332.694 C 157.168 327.119,170.554 333.185,173.751 343.130 C 179.593 361.302,157.242 375.177,144.664 361.186 C 140.188 356.209,140.000 355.176,140.000 335.600 L 140.000 319.174 140.900 318.812 C 142.451 318.189,147.318 318.327,148.311 319.023 M296.177 319.289 C 296.671 319.993,296.801 321.384,296.806 325.989 C 296.813 332.599,297.001 333.255,298.637 332.382 C 300.496 331.388,306.959 331.605,309.354 332.742 C 316.583 336.172,318.400 340.711,318.400 355.335 C 318.400 366.973,318.652 366.400,313.540 366.400 C 308.962 366.400,309.200 367.022,309.199 355.071 C 309.197 345.727,309.140 344.906,308.402 343.696 C 306.005 339.765,300.719 339.566,298.123 343.310 L 297.000 344.930 296.869 354.965 C 296.714 366.927,296.914 366.400,292.512 366.400 C 287.491 366.400,288.000 369.108,288.000 342.373 L 288.000 319.174 288.900 318.812 C 290.872 318.020,295.500 318.323,296.177 319.289 M117.454 331.002 C 116.824 331.331,116.010 331.600,115.645 331.600 C 114.330 331.600,110.355 334.606,108.503 337.000 C 102.928 344.209,103.526 355.411,109.833 361.922 C 111.960 364.118,112.357 364.403,115.600 366.059 C 120.562 368.592,129.769 366.986,134.307 362.795 C 137.346 359.989,137.302 359.225,133.896 355.662 C 130.887 352.513,130.220 352.312,128.634 354.075 C 127.135 355.740,125.786 356.604,124.225 356.897 C 122.482 357.224,121.917 356.893,122.731 356.021 C 124.140 354.511,125.484 352.928,126.993 351.000 C 127.855 349.900,128.748 348.820,128.980 348.600 C 129.211 348.380,130.116 347.300,130.990 346.200 C 131.865 345.100,133.168 343.570,133.887 342.800 C 134.605 342.030,135.195 341.194,135.197 340.943 C 135.198 340.691,135.446 340.391,135.747 340.276 C 139.088 338.994,134.840 334.006,127.886 331.045 C 125.858 330.181,119.083 330.153,117.454 331.002 M190.000 331.876 C 188.350 332.662,186.571 333.642,186.046 334.053 C 184.764 335.057,184.692 335.037,182.951 333.200 C 181.333 331.492,180.076 331.181,179.029 332.229 C 178.293 332.964,178.065 377.650,178.791 378.800 C 179.294 379.597,186.925 379.926,187.813 379.189 C 188.286 378.796,188.400 377.396,188.400 371.951 C 188.400 368.238,188.518 365.200,188.661 365.200 C 188.805 365.200,189.919 365.671,191.137 366.247 C 194.252 367.721,201.153 367.513,204.000 365.859 C 204.990 365.284,206.160 364.647,206.600 364.444 C 208.121 363.740,212.385 358.659,212.413 357.516 C 212.420 357.232,212.690 356.651,213.013 356.224 C 213.336 355.796,213.593 354.896,213.583 354.224 C 213.570 353.211,213.421 353.414,212.721 355.400 C 209.460 364.654,198.968 369.493,190.813 365.503 C 187.979 364.117,188.014 364.038,188.006 371.910 L 188.000 378.420 186.974 378.810 C 185.320 379.439,180.709 379.292,179.689 378.577 L 178.800 377.955 178.800 355.866 C 178.800 329.608,178.761 329.822,182.829 333.828 L 184.685 335.657 187.153 334.061 C 197.116 327.622,208.821 331.531,212.721 342.600 C 213.421 344.586,213.570 344.789,213.583 343.776 C 213.593 343.104,213.336 342.204,213.013 341.776 C 212.690 341.349,212.420 340.773,212.413 340.496 C 212.358 338.324,205.360 331.600,203.155 331.600 C 202.790 331.600,201.976 331.331,201.346 331.002 C 199.032 329.796,193.467 330.224,190.000 331.876 M127.458 331.554 C 130.378 332.442,133.923 334.699,135.364 336.588 C 136.622 338.237,136.440 338.904,133.937 341.831 C 132.982 342.948,131.032 345.288,129.605 347.031 C 128.177 348.774,125.786 351.692,124.291 353.516 C 121.278 357.190,121.214 357.816,123.887 357.450 C 125.801 357.188,127.516 356.153,129.251 354.214 L 130.338 353.000 133.400 356.060 L 136.462 359.120 135.843 360.317 C 131.875 367.990,117.094 368.821,110.335 361.751 C 97.550 348.377,110.085 326.270,127.458 331.554 M57.829 332.229 C 56.365 333.692,57.035 355.758,58.654 359.400 C 61.690 366.231,71.376 369.448,77.548 365.676 C 79.372 364.562,79.795 364.443,80.348 364.885 C 85.656 369.134,95.307 367.363,99.122 361.441 C 101.352 357.978,101.366 357.881,101.499 344.855 C 101.646 330.435,102.080 331.600,96.565 331.600 C 91.226 331.600,91.600 330.655,91.600 344.138 L 91.600 355.129 90.322 356.204 C 88.719 357.553,86.716 357.371,85.324 355.751 C 84.407 354.684,84.400 354.592,84.400 343.618 C 84.400 330.619,84.796 331.600,79.549 331.600 C 74.004 331.600,74.403 330.647,74.387 343.929 C 74.371 356.928,74.047 357.889,69.984 356.996 C 67.820 356.521,67.671 355.700,67.529 343.461 C 67.420 334.135,67.305 332.310,66.800 331.991 C 65.735 331.318,58.549 331.508,57.829 332.229 M217.680 332.080 C 216.105 333.655,217.308 356.663,219.081 358.875 C 219.313 359.164,219.619 359.760,219.762 360.200 C 221.525 365.618,232.734 369.126,238.400 366.032 C 243.139 363.444,243.319 363.369,243.503 363.915 C 244.260 366.160,247.549 367.752,248.157 366.167 C 248.784 364.535,248.415 332.091,247.767 331.843 C 246.328 331.291,239.673 331.584,239.029 332.229 C 238.491 332.767,238.400 334.308,238.397 342.929 C 238.395 353.872,238.398 353.852,235.976 356.108 C 234.699 357.298,231.088 357.371,229.597 356.238 C 227.363 354.539,227.200 353.638,227.200 342.957 C 227.200 336.960,227.039 332.847,226.786 332.374 C 226.287 331.441,218.568 331.192,217.680 332.080 M259.393 332.567 C 252.076 335.992,250.464 345.251,256.131 351.300 C 256.698 351.905,257.291 352.400,257.449 352.400 C 257.608 352.400,258.021 352.645,258.369 352.943 C 259.783 354.161,261.948 354.571,268.082 354.783 C 272.269 354.928,274.230 354.867,273.963 354.600 C 273.743 354.380,270.736 354.110,267.281 354.000 C 257.458 353.687,253.208 350.366,253.208 343.000 C 253.208 334.778,257.313 332.273,271.100 332.082 L 280.800 331.948 281.200 333.000 C 281.724 334.379,281.715 339.438,281.186 340.426 C 280.796 341.155,280.264 341.200,272.066 341.200 C 262.898 341.200,262.400 341.294,262.400 343.031 C 262.400 344.613,263.253 344.847,269.589 345.005 C 280.591 345.279,285.645 350.188,283.172 358.197 C 281.088 364.943,278.489 366.081,264.677 366.298 C 252.372 366.491,253.200 366.814,253.200 361.831 C 253.200 356.880,252.488 357.200,263.506 357.200 C 272.536 357.200,274.400 356.984,274.400 355.940 C 274.400 355.689,273.988 355.778,273.414 356.154 C 272.578 356.702,271.013 356.800,263.094 356.800 C 256.368 356.800,253.626 356.934,253.280 357.280 C 252.679 357.881,252.626 364.927,253.214 366.026 C 253.670 366.879,275.265 367.266,275.781 366.431 C 275.906 366.228,276.560 365.940,277.234 365.792 C 280.329 365.113,284.400 359.060,284.400 355.139 C 284.400 352.525,280.911 346.400,279.421 346.400 C 279.224 346.400,278.777 346.141,278.427 345.824 C 277.509 344.994,273.275 344.407,268.180 344.403 C 263.064 344.400,261.825 343.832,263.429 342.229 C 263.961 341.696,265.371 341.600,272.638 341.600 L 281.220 341.600 281.610 340.574 C 281.824 340.010,282.000 338.221,282.000 336.600 C 282.000 334.979,281.824 333.190,281.610 332.626 L 281.220 331.600 271.310 331.614 C 261.762 331.627,261.327 331.662,259.393 332.567 M324.080 332.080 C 323.390 332.770,323.390 365.630,324.080 366.320 C 324.757 366.997,332.637 366.980,333.076 366.300 C 333.254 366.025,333.490 361.084,333.600 355.319 L 333.800 344.838 335.294 343.470 C 337.069 341.846,338.090 341.600,343.060 341.600 C 347.511 341.600,347.600 341.502,347.600 336.600 C 347.600 334.979,347.424 333.190,347.210 332.626 L 346.820 331.600 341.645 331.600 C 336.416 331.600,333.477 332.228,331.011 333.874 C 329.745 334.718,328.859 334.494,327.546 333.000 C 326.285 331.563,324.951 331.209,324.080 332.080 M66.167 332.243 C 66.721 332.455,66.805 333.818,66.840 343.143 C 66.862 349.004,66.997 354.164,67.140 354.608 C 68.123 357.662,71.436 358.625,73.581 356.481 L 74.800 355.262 74.800 344.520 C 74.800 331.379,74.575 332.000,79.346 332.000 C 84.308 332.000,83.958 331.098,84.088 344.210 C 84.197 355.101,84.225 355.447,85.073 356.356 C 86.430 357.812,89.127 357.969,90.627 356.679 L 91.800 355.671 92.000 344.220 C 92.168 334.628,92.297 332.708,92.800 332.391 C 93.851 331.728,99.854 331.911,100.571 332.629 C 101.522 333.579,101.499 353.850,100.543 357.137 C 98.148 365.375,89.661 369.080,81.949 365.253 L 79.297 363.938 76.949 365.269 C 70.845 368.728,62.571 365.956,59.179 359.316 C 58.031 357.070,57.370 333.841,58.418 332.578 C 58.913 331.981,64.820 331.726,66.167 332.243 M226.386 332.774 C 226.640 333.248,226.800 337.418,226.800 343.543 L 226.800 353.538 228.101 355.244 C 230.782 358.758,236.268 358.214,238.151 354.247 C 238.693 353.104,238.800 351.312,238.800 343.329 C 238.800 331.475,238.579 332.000,243.574 332.000 C 248.414 332.000,248.026 330.437,247.905 349.446 L 247.800 365.800 246.828 365.937 C 245.886 366.070,243.600 364.074,243.600 363.119 C 243.600 362.577,241.989 363.172,240.600 364.226 C 232.562 370.328,220.388 365.200,218.198 354.790 C 217.313 350.584,217.337 333.520,218.229 332.629 C 219.245 331.612,225.827 331.729,226.386 332.774 M327.307 333.600 C 328.858 335.412,329.580 335.554,331.241 334.371 C 333.325 332.887,337.390 332.000,342.109 332.000 C 347.142 332.000,347.200 332.053,347.200 336.600 C 347.200 341.109,347.221 341.091,341.726 341.257 C 333.523 341.505,333.200 342.047,333.200 355.538 C 333.200 366.906,333.420 366.400,328.485 366.400 C 323.556 366.400,324.000 368.095,324.000 349.266 C 324.000 330.439,324.119 329.875,327.307 333.600 M118.794 340.950 C 116.244 342.300,114.860 344.422,114.547 347.462 C 114.283 350.030,114.557 352.000,115.178 352.000 C 115.842 352.000,124.069 340.835,123.766 340.345 C 123.351 339.674,120.563 340.013,118.794 340.950 M154.091 340.847 C 150.656 342.547,148.936 345.856,149.312 350.044 C 150.185 359.759,163.986 360.047,165.366 350.379 C 166.370 343.336,159.979 337.932,154.091 340.847 M193.612 340.445 C 190.994 341.490,188.132 345.004,188.493 346.730 C 188.575 347.122,188.953 346.576,189.404 345.412 C 191.619 339.705,198.117 338.754,202.439 343.503 C 204.224 345.465,204.516 351.849,202.900 353.585 C 202.405 354.116,202.000 354.679,202.000 354.836 C 202.000 356.558,194.510 357.748,192.891 356.282 C 192.476 355.907,192.008 355.600,191.849 355.600 C 191.365 355.600,189.627 353.438,189.598 352.800 C 189.551 351.745,188.430 350.031,188.421 351.000 C 188.375 355.771,196.512 359.315,200.846 356.411 C 209.060 350.909,202.679 336.826,193.612 340.445 M122.669 341.300 C 121.771 342.973,120.622 344.598,120.110 344.920 C 119.829 345.096,119.600 345.411,119.600 345.620 C 119.600 345.829,119.316 346.315,118.968 346.700 C 118.620 347.085,117.647 348.355,116.805 349.523 L 115.274 351.646 115.001 350.407 C 113.984 345.772,117.535 340.630,121.876 340.452 C 123.081 340.403,123.125 340.451,122.669 341.300 M160.065 341.131 C 163.629 342.948,164.800 344.845,164.800 348.800 C 164.800 351.918,163.139 355.600,161.731 355.600 C 161.584 355.600,161.129 355.902,160.722 356.271 C 158.321 358.443,152.478 356.453,150.549 352.806 C 147.121 346.327,153.913 337.995,160.065 341.131 M213.710 349.000 C 213.712 352.150,213.767 352.546,213.971 350.865 C 214.113 349.690,214.111 347.890,213.968 346.865 C 213.780 345.524,213.708 346.125,213.710 349.000 M188.093 348.800 C 188.093 349.570,188.175 349.885,188.276 349.500 C 188.376 349.115,188.376 348.485,188.276 348.100 C 188.175 347.715,188.093 348.030,188.093 348.800 " stroke="none" fill="#9ab7d2" fill-rule="evenodd"></path><path id="path4" d="M140.900 318.812 L 140.000 319.174 140.000 335.600 C 140.000 355.176,140.188 356.209,144.664 361.186 C 157.242 375.177,179.593 361.302,173.751 343.130 C 170.554 333.185,157.168 327.119,150.725 332.694 C 149.410 333.833,149.200 332.938,149.200 326.199 C 149.200 319.880,149.168 319.623,148.311 319.023 C 147.318 318.327,142.451 318.189,140.900 318.812 M288.900 318.812 L 288.000 319.174 288.000 342.373 C 288.000 369.108,287.491 366.400,292.512 366.400 C 296.914 366.400,296.714 366.927,296.869 354.965 L 297.000 344.930 298.123 343.310 C 300.719 339.566,306.005 339.765,308.402 343.696 C 309.140 344.906,309.197 345.727,309.199 355.071 C 309.200 367.022,308.962 366.400,313.540 366.400 C 318.652 366.400,318.400 366.973,318.400 355.335 C 318.400 340.711,316.583 336.172,309.354 332.742 C 306.959 331.605,300.496 331.388,298.637 332.382 C 297.001 333.255,296.813 332.599,296.806 325.989 C 296.798 318.550,296.711 318.390,292.677 318.425 C 291.095 318.439,289.395 318.613,288.900 318.812 M147.843 319.900 C 148.233 320.413,148.378 322.325,148.387 327.073 C 148.402 334.375,148.728 335.091,151.210 333.256 C 156.892 329.055,168.565 333.331,172.142 340.923 C 181.697 361.202,153.080 376.514,142.458 356.806 C 140.726 353.592,140.400 350.136,140.400 334.997 L 140.400 320.445 141.289 319.823 C 142.592 318.910,147.133 318.964,147.843 319.900 M295.586 319.974 C 295.821 320.412,296.000 323.451,296.000 326.986 C 296.000 333.928,296.131 334.245,298.559 333.193 C 304.831 330.475,312.962 333.963,316.293 340.800 L 317.365 343.000 317.382 354.000 L 317.400 365.000 313.600 365.000 L 309.800 365.000 309.728 354.692 C 309.637 341.733,308.735 339.775,302.895 339.859 C 297.425 339.938,296.258 342.534,296.000 355.200 L 295.800 365.000 292.200 365.000 L 288.600 365.000 288.492 342.800 L 288.384 320.600 289.236 319.900 C 290.512 318.853,295.014 318.905,295.586 319.974 M117.600 331.539 C 99.001 337.236,102.123 365.652,121.465 366.717 C 127.187 367.032,133.920 364.035,135.843 360.317 L 136.462 359.120 133.400 356.060 L 130.338 353.000 129.251 354.214 C 127.516 356.153,125.801 357.188,123.887 357.450 C 121.214 357.816,121.278 357.190,124.291 353.516 C 125.786 351.692,128.177 348.774,129.605 347.031 C 131.032 345.288,132.982 342.948,133.937 341.831 C 136.440 338.904,136.622 338.237,135.364 336.588 C 131.843 331.972,123.722 329.664,117.600 331.539 M191.679 331.778 C 190.293 332.293,188.156 333.380,186.930 334.194 L 184.702 335.673 182.837 333.837 C 178.760 329.820,178.800 329.600,178.800 355.866 L 178.800 377.955 179.689 378.577 C 180.709 379.292,185.320 379.439,186.974 378.810 L 188.000 378.420 188.006 371.910 C 188.014 364.038,187.979 364.117,190.813 365.503 C 199.016 369.516,209.523 364.625,212.738 355.298 C 217.584 341.241,204.761 326.919,191.679 331.778 M126.532 332.212 C 130.849 332.763,136.697 337.582,135.100 339.272 C 134.825 339.563,133.881 340.701,133.002 341.801 C 132.123 342.900,131.018 344.250,130.546 344.800 C 130.073 345.350,128.205 347.600,126.395 349.800 C 124.584 352.000,122.577 354.423,121.935 355.184 C 118.503 359.250,124.312 359.875,128.645 355.907 C 130.700 354.024,130.371 353.959,133.273 356.808 L 135.727 359.217 134.530 360.708 C 129.162 367.404,117.213 367.651,110.762 361.200 C 101.103 351.541,106.535 333.532,119.564 332.015 C 122.168 331.711,122.744 331.728,126.532 332.212 M58.418 332.578 C 57.370 333.841,58.031 357.070,59.179 359.316 C 62.571 365.956,70.845 368.728,76.949 365.269 L 79.297 363.938 81.949 365.253 C 89.661 369.080,98.148 365.375,100.543 357.137 C 101.499 353.850,101.522 333.579,100.571 332.629 C 99.854 331.911,93.851 331.728,92.800 332.391 C 92.297 332.708,92.168 334.628,92.000 344.220 L 91.800 355.671 90.627 356.679 C 89.127 357.969,86.430 357.812,85.073 356.356 C 84.225 355.447,84.197 355.101,84.088 344.210 C 83.958 331.098,84.308 332.000,79.346 332.000 C 74.575 332.000,74.800 331.379,74.800 344.520 L 74.800 355.262 73.581 356.481 C 71.436 358.625,68.123 357.662,67.140 354.608 C 66.997 354.164,66.862 349.004,66.840 343.143 C 66.805 333.818,66.721 332.455,66.167 332.243 C 64.820 331.726,58.913 331.981,58.418 332.578 M203.600 333.203 C 212.659 337.888,215.854 349.738,210.446 358.592 C 206.243 365.475,196.047 368.257,189.867 364.207 C 187.815 362.862,187.600 363.469,187.600 370.614 C 187.600 378.608,187.670 378.484,183.255 378.316 L 180.200 378.200 180.097 356.071 C 179.981 331.337,179.914 331.939,182.496 334.558 C 184.660 336.754,184.691 336.757,187.104 335.091 C 188.953 333.814,190.579 332.933,192.200 332.330 C 194.053 331.640,201.712 332.227,203.600 333.203 M218.229 332.629 C 217.337 333.520,217.313 350.584,218.198 354.790 C 220.388 365.200,232.562 370.328,240.600 364.226 C 241.989 363.172,243.600 362.577,243.600 363.119 C 243.600 364.074,245.886 366.070,246.828 365.937 L 247.800 365.800 247.905 349.446 C 248.026 330.437,248.414 332.000,243.574 332.000 C 238.579 332.000,238.800 331.475,238.800 343.329 C 238.800 351.312,238.693 353.104,238.151 354.247 C 236.268 358.214,230.782 358.758,228.101 355.244 L 226.800 353.538 226.800 343.543 C 226.800 337.418,226.640 333.248,226.386 332.774 C 225.827 331.729,219.245 331.612,218.229 332.629 M260.502 332.784 C 251.387 336.064,250.591 348.332,259.200 352.854 C 260.802 353.696,261.681 353.822,267.200 354.000 C 273.698 354.210,274.400 354.367,274.400 355.610 C 274.400 357.015,273.132 357.200,263.506 357.200 C 252.488 357.200,253.200 356.880,253.200 361.831 C 253.200 366.814,252.372 366.491,264.677 366.298 C 278.489 366.081,281.088 364.943,283.172 358.197 C 285.645 350.188,280.591 345.279,269.589 345.005 C 263.253 344.847,262.400 344.613,262.400 343.031 C 262.400 341.294,262.898 341.200,272.066 341.200 C 280.264 341.200,280.796 341.155,281.186 340.426 C 281.710 339.447,281.726 334.385,281.210 333.026 L 280.820 332.000 271.710 332.014 C 263.812 332.027,262.321 332.129,260.502 332.784 M324.480 332.480 C 324.122 332.838,324.000 337.117,324.000 349.266 C 324.000 368.095,323.556 366.400,328.485 366.400 C 333.420 366.400,333.200 366.906,333.200 355.538 C 333.200 342.047,333.523 341.505,341.726 341.257 C 347.221 341.091,347.200 341.109,347.200 336.600 C 347.200 332.053,347.142 332.000,342.109 332.000 C 337.390 332.000,333.325 332.887,331.241 334.371 C 329.580 335.554,328.858 335.412,327.307 333.600 C 325.871 331.922,325.275 331.685,324.480 332.480 M65.626 333.214 C 66.362 333.608,66.400 334.162,66.400 344.621 L 66.400 355.614 67.836 357.008 C 69.703 358.822,70.813 359.076,72.695 358.118 C 75.659 356.610,75.965 355.292,75.984 343.933 C 76.003 332.008,75.778 332.800,79.154 332.800 C 83.844 332.800,83.630 332.226,83.579 344.692 C 83.531 356.616,83.518 356.557,86.533 358.200 L 88.000 359.000 89.900 358.000 C 92.635 356.561,92.751 356.004,92.777 344.231 C 92.804 332.377,92.654 332.800,96.848 332.800 C 100.511 332.800,100.401 332.457,100.397 343.874 C 100.393 357.665,99.665 360.494,95.321 363.614 C 91.396 366.433,84.646 366.717,81.600 364.192 C 80.362 363.165,79.212 363.114,77.686 364.016 C 71.182 367.863,63.800 365.851,59.800 359.142 C 58.996 357.793,58.310 336.407,58.985 333.719 C 59.242 332.694,63.982 332.334,65.626 333.214 M225.298 333.300 C 225.863 333.734,225.966 335.136,226.074 343.866 L 226.200 353.933 227.400 355.637 C 229.984 359.309,234.402 359.579,237.500 356.255 C 239.706 353.889,240.000 352.295,240.000 342.719 C 240.000 337.960,240.109 333.781,240.243 333.433 C 240.526 332.694,244.837 332.530,246.579 333.192 L 247.609 333.584 247.505 349.292 C 247.387 366.958,247.309 367.352,244.673 363.601 C 243.514 361.952,242.095 361.701,241.000 362.953 C 235.936 368.745,224.026 365.962,219.894 358.021 C 218.550 355.439,217.678 335.696,218.814 333.574 C 219.311 332.644,224.177 332.439,225.298 333.300 M279.900 333.052 C 280.742 333.278,280.800 333.508,280.800 336.618 L 280.800 339.943 272.300 340.072 C 263.125 340.210,261.998 340.464,261.447 342.519 C 260.824 344.839,262.098 345.377,268.842 345.641 C 279.492 346.059,282.575 348.250,282.575 355.400 C 282.575 359.793,281.729 361.384,278.000 364.013 L 276.600 365.000 265.200 365.000 L 253.800 365.000 253.679 362.412 C 253.455 357.638,252.489 358.057,264.036 357.920 C 274.908 357.790,275.200 357.726,275.200 355.455 C 275.200 353.475,274.310 353.200,267.912 353.200 C 260.600 353.200,258.577 352.512,255.715 349.052 C 251.242 343.645,254.929 334.432,262.038 333.252 C 264.500 332.844,278.535 332.686,279.900 333.052 M345.626 333.214 C 346.292 333.570,346.400 334.074,346.400 336.814 L 346.400 340.000 343.933 340.000 C 333.542 340.000,331.951 342.189,332.019 356.400 L 332.060 365.000 328.330 365.000 L 324.600 365.000 324.495 349.647 C 324.390 334.189,324.468 333.200,325.795 333.200 C 326.068 333.200,326.790 333.920,327.400 334.800 C 328.548 336.457,329.546 336.797,330.491 335.852 C 332.761 333.581,342.984 331.800,345.626 333.214 M119.686 339.732 C 115.061 340.995,111.660 349.137,114.372 352.456 C 115.306 353.599,114.890 353.986,120.173 347.052 C 125.809 339.655,125.705 338.089,119.686 339.732 M154.723 339.676 C 146.435 341.881,146.508 354.899,154.825 358.010 C 162.354 360.825,169.854 349.775,164.751 343.385 C 161.847 339.750,158.750 338.604,154.723 339.676 M193.858 339.643 C 185.659 341.569,185.323 354.942,193.400 357.896 C 200.952 360.658,207.760 352.916,204.734 345.008 C 203.017 340.522,198.856 338.468,193.858 339.643 M123.766 340.345 C 124.069 340.835,115.842 352.000,115.178 352.000 C 113.803 352.000,114.339 345.651,115.900 343.450 C 117.668 340.958,122.875 338.903,123.766 340.345 M160.674 340.836 C 164.089 342.489,165.951 346.276,165.366 350.379 C 163.986 360.047,150.185 359.759,149.312 350.044 C 148.680 343.003,154.839 338.011,160.674 340.836 M199.803 340.746 C 205.787 343.464,206.402 352.690,200.846 356.411 C 198.561 357.942,194.288 357.832,191.936 356.182 C 183.500 350.265,190.505 336.522,199.803 340.746 " stroke="none" fill="#7c7c7c" fill-rule="evenodd"></path></g></svg>